<svg width="43" height="43" viewBox="0 0 43 43" fill="none" xmlns="http://www.w3.org/2000/svg">
<g clip-path="url(#clip0_76_199)">
<path d="M33.9417 3.62061H14.6743V11.6106H38.0567V7.73402C38.0567 5.46567 36.2107 3.62061 33.9417 3.62061Z" fill="#CED9F9"/>
<path d="M23.0352 12.8403H0.5V5.42636C0.5 2.70972 2.71068 0.5 5.42828 0.5H12.6336C13.3497 0.5 14.0396 0.650925 14.6664 0.934509C15.5418 1.32896 16.2939 1.97913 16.8213 2.8286L23.0352 12.8403Z" fill="#0A92DD"/>
<path d="M42.5 14.5001V38.3815C42.5 40.6527 40.6511 42.5 38.3789 42.5H4.62111C2.34891 42.5 0.5 40.6527 0.5 38.3815V10.3806H38.3789C40.6511 10.3806 42.5 12.2286 42.5 14.5001Z" fill="#0A92DD"/>
<path d="M42.5 14.5001V38.3815C42.5 40.6527 40.6511 42.5 38.3789 42.5H21.5V10.3806H38.3789C40.6511 10.3806 42.5 12.2286 42.5 14.5001Z" fill="#0A92DD"/>
<path d="M32.548 26.4398C32.548 32.5322 27.5919 37.4887 21.5001 37.4887C15.4083 37.4887 10.4521 32.5322 10.4521 26.4398C10.4521 20.3483 15.4083 15.3918 21.5001 15.3918C27.5919 15.3918 32.548 20.3483 32.548 26.4398Z" fill="#E7ECFC"/>
<path d="M32.5479 26.4398C32.5479 32.5322 27.5918 37.4887 21.5 37.4887V15.3918C27.5918 15.3918 32.5479 20.3483 32.5479 26.4398Z" fill="#CED9F9"/>
<path d="M25.0612 26.5753C24.8308 26.7704 24.5485 26.8656 24.2688 26.8656C23.9185 26.8656 23.5705 26.7173 23.327 26.4282L22.7307 25.7213V30.3494C22.7307 31.0287 22.1795 31.5799 21.5002 31.5799C20.8209 31.5799 20.2698 31.0287 20.2698 30.3494V25.7213L19.6734 26.4282C19.2344 26.9476 18.4587 27.014 17.9392 26.5753C17.4201 26.1373 17.3535 25.3612 17.7915 24.8418L20.2271 21.9543C20.5447 21.5788 21.008 21.3628 21.5002 21.3628C21.9924 21.3628 22.4558 21.5788 22.7733 21.9543L25.2089 24.8418C25.647 25.3612 25.5803 26.1373 25.0612 26.5753Z" fill="#0A92DD"/>
<path d="M25.061 26.5753C24.8306 26.7704 24.5483 26.8656 24.2686 26.8656C23.9183 26.8656 23.5703 26.7173 23.3268 26.4282L22.7305 25.7213V30.3494C22.7305 31.0287 22.1793 31.5799 21.5 31.5799V21.3628C21.9922 21.3628 22.4555 21.5788 22.7731 21.9543L25.2087 24.8418C25.6467 25.3612 25.5801 26.1373 25.061 26.5753Z" fill="#0A92DD"/>
</g>
<defs>
<clipPath id="clip0_76_199">
<rect width="42" height="42" fill="white" transform="translate(0.5 0.5)"/>
</clipPath>
</defs>
</svg>
